<?xml version="1.0" encoding="iso-8859-1"?>
<!-- Uploaded to: SVG Repo, www.svgrepo.com, Generator: SVG Repo Mixer Tools -->
<svg fill="#000000" height="800px" width="800px" version="1.1" id="Layer_1" xmlns="http://www.w3.org/2000/svg" xmlns:xlink="http://www.w3.org/1999/xlink" 
	 viewBox="0 0 511.997 511.997" xml:space="preserve">
<g>
	<g>
		<path d="M489.602,145.642l-62.855-36.058c-7.497-4.301-16.432-3.767-23.235,0.602l-31.1-17.841
			c-3.04-1.745-6.919-0.693-8.664,2.347l-3.925,6.842c-1.745,3.04-0.693,6.919,2.347,8.664l31.1,17.841
			c-0.131,3.142,0.401,6.265,1.545,9.169c6.543-3.885,15.334-10.375,29.514-8.521c10.664,1.394,20.607,7.484,26.524,17.45
			c5.712,9.62,6.461,20.809,3.013,30.596l13.467,7.726c3.346,1.919,7.615,0.763,9.534-2.583l15.316-26.699
			C494.105,151.83,492.948,147.561,489.602,145.642z"/>
	</g>
</g>
<g>
	<g>
		<path d="M379.376,385.12l-22.542-92.192l0.021-15.942l-52.548,14.394c-2.953,14.711-7.282,34.698-11.996,48.88
			c-3.549,10.678-18.735,10.79-22.397,0c-1.834-5.519-3.372-11.362-4.841-16.952v49.401l-30.518,110.096
			c-3.399,12.258,3.784,24.95,16.043,28.347c12.262,3.399,24.951-3.789,28.347-16.043l31.355-113.115
			c0.555-2.003,0.838-4.073,0.838-6.152v-60.173l3.849,0.06l18.618,76.145l-12.296,94.098c-1.648,12.614,7.241,24.174,19.853,25.823
			c12.615,1.647,24.175-7.242,25.823-19.853l12.854-98.369C380.212,390.752,380.053,387.885,379.376,385.12z"/>
	</g>
</g>
<g>
	<g>
		<path d="M388.291,46.492c-2.436-7.915-10.828-12.358-18.739-9.922c-3.306,1.017-6.636,1.904-9.975,2.719l-9.404-35.122
			c-0.783-2.926-3.745-4.704-6.695-4.021l-17.474,4.043c-4.879,1.129-9.951,1.129-14.83,0l-17.474-4.043
			c-2.951-0.683-5.912,1.096-6.695,4.021L277.6,39.29c-3.34-0.815-6.67-1.703-9.975-2.72c-7.915-2.433-16.306,2.008-18.739,9.922
			c-2.433,7.913,2.008,16.302,9.923,18.738c6.504,2.001,13.07,3.661,19.677,4.997c-0.237,1.768-0.373,3.568-0.375,5.401
			c-0.029,22.443,18.14,40.66,40.583,40.69c22.443,0.029,40.66-18.14,40.69-40.583c0.002-1.89-0.134-3.747-0.382-5.568
			c6.503-1.325,12.968-2.965,19.37-4.935C386.284,62.797,390.727,54.406,388.291,46.492z"/>
	</g>
</g>
<g>
	<g>
		<path d="M271.971,257.158c-3.345,1.365-14.139,6.615-19.569,10.475c-4.032,2.869-5.846,8.176-4.081,13.056
			c1.929,5.335,7.972,9.412,15.683,6.312c-3.701,2.573-4.954,7.571-2.753,11.624c2.295,4.225,7.579,5.958,11.991,3.671
			c0.931,8.053,2.012,16.108,3.392,24.529c0.309,1.867,1.774,3.422,3.746,3.746c2.474,0.405,4.807-1.271,5.213-3.746
			c2.966-18.103,4.876-37.196,6.448-55.308C292.484,260.599,281.534,253.442,271.971,257.158z"/>
	</g>
</g>
<g>
	<g>
		<path d="M435.257,155.398c-5.119-8.617-16.251-11.454-24.866-6.338l-50.423,29.936l-41.388-24.952l33.687,8.424l4.364-2.59
			c-2.155-14.007-13.512-24.702-27.222-24.72l-36.258-0.744c-15.787-0.324-28.766,12.379-28.806,28.149l-0.204,79.569
			c8.959-3.943,23.315-1.875,29.441,2.243c14.059,9.45,14.286,27.155,14.031,28.684l49.267-13.496l0.027-20.55
			c-5.938-0.49-11.623-3.198-15.743-7.802l-41.317-46.093l50.685,30.556c5.68,3.426,12.838,3.501,18.629,0.063l59.756-35.477
			C437.534,175.145,440.372,164.014,435.257,155.398z"/>
	</g>
</g>
<g>
	<g>
		<path d="M143.409,192.488c-9.277,0-16.797,7.521-16.797,16.797v68.312c0,8.981-4.511,17.242-12.065,22.099l-0.477,0.307V192.486
			c0-12.966-10.55-23.516-23.516-23.516s-23.516,10.55-23.516,23.516v184.96l-2.493-1.602c-7.554-4.857-12.065-13.118-12.065-22.099
			v-98.547c0-9.277-7.521-16.797-16.797-16.797s-16.797,7.521-16.797,16.797v98.547c0,20.466,10.278,39.291,27.493,50.359
			l20.66,13.281v71.096c0,12.966,10.55,23.516,23.516,23.516s23.516-10.55,23.516-23.516v-148.54l18.644-11.986
			c17.215-11.067,27.493-29.893,27.493-50.359v-68.312C160.207,200.008,152.687,192.488,143.409,192.488z"/>
	</g>
</g>
</svg>