<?xml version="1.0" encoding="iso-8859-1"?>
<!-- Uploaded to: SVG Repo, www.svgrepo.com, Generator: SVG Repo Mixer Tools -->
<svg height="800px" width="800px" version="1.1" id="Layer_1" xmlns="http://www.w3.org/2000/svg" xmlns:xlink="http://www.w3.org/1999/xlink" 
	 viewBox="0 0 504.014 504.014" xml:space="preserve">
<g transform="translate(1 1)">
	<path style="fill:#FFD0A1;" d="M379.053,167.38v49.493c0,9.387-7.68,17.067-17.067,17.067c0,0-20.48,75.093-34.133,102.4
		c-8.533,17.067-17.067,42.667-76.8,42.667s-68.267-25.6-76.8-42.667c-13.653-27.307-34.133-102.4-34.133-102.4
		c-9.387,0-17.067-7.68-17.067-17.067V167.38c30.72,5.12,74.24,6.827,128,6.827S348.333,172.5,379.053,167.38"/>
	<g>
		<path style="fill:#FF7474;" d="M191.32,498.474H3.587l8.533-25.6c7.68-23.893,42.667-59.733,93.867-59.733h25.6
			C131.587,447.274,191.32,498.474,191.32,498.474"/>
		<path style="fill:#FF7474;" d="M489.987,472.874l8.533,25.6H310.787c0,0,59.733-51.2,59.733-85.333h1.707h23.893
			C447.32,413.14,482.307,448.98,489.987,472.874"/>
		<path style="fill:#FF7474;" d="M193.88,407.167c22.187,8.533,57.173,5.973,57.173,5.973c42.667,0,68.267-25.6,85.333-25.6
			c22.187,0,34.133,8.533,34.133,25.6c0,34.133-59.733,85.333-59.733,85.333H191.32c0,0-59.733-51.2-59.733-85.333
			c0-17.067,12.8-25.6,34.133-25.6c8.533,0,15.36,9.387,27.307,20.48L193.88,407.167z"/>
	</g>
	<g>
		<path style="fill:#AE938D;" d="M152.92,104.233C161.453,70.953,182.787,3.54,208.387,3.54s34.133,17.067,42.667,17.067
			c8.533,0,17.067-17.067,42.667-17.067c26.453,0,46.933,69.12,55.467,102.4c2.56,10.24,4.267,17.067,4.267,17.067l-34.133,4.267
			c0,0-17.067,4.267-68.267,4.267s-102.4-8.533-102.4-8.533S150.36,115.327,152.92,104.233"/>
		<path style="fill:#AE938D;" d="M349.187,105.94c0,0,81.067,0,81.067,34.133c0,12.8-17.92,22.187-51.2,27.307
			c-30.72,5.12-74.24,6.827-128,6.827s-97.28-1.707-128-6.827c-33.28-5.12-51.2-13.653-51.2-27.307c0-25.6,51.2-34.133,51.2-34.133
			s15.36-0.853,29.867-1.707c-2.56,11.093-4.267,18.773-4.267,18.773s51.2,8.533,102.4,8.533s68.267-4.267,68.267-4.267
			l34.133-4.267C353.453,123.007,351.747,116.18,349.187,105.94"/>
	</g>
</g>
<path style="fill:#51565F;" d="M499.52,503.74c-1.707,0-3.413-0.853-4.267-2.56l-8.533-25.6c-7.68-23.04-41.813-57.173-89.6-57.173
	c-2.56,0-4.267-1.707-4.267-4.267s1.707-4.267,4.267-4.267c52.907,0,89.6,36.693,98.133,62.293l8.533,25.6
	c0.853,2.56-0.853,4.267-2.56,5.12C500.373,503.74,500.373,503.74,499.52,503.74z M4.587,503.74c-0.853,0-0.853,0-1.707,0
	c-2.56-0.853-3.413-3.413-2.56-5.12l8.533-25.6c8.533-25.6,45.227-62.293,98.133-62.293c2.56,0,4.267,1.707,4.267,4.267
	c0,2.56-1.707,4.267-4.267,4.267c-48.64,0-81.92,34.133-89.6,57.173l-8.533,25.6C8,502.887,6.293,503.74,4.587,503.74z
	 M311.787,503.74c-0.853,0-2.56-0.853-3.413-1.707c-1.707-1.707-1.707-4.267,0.853-5.973c0.853-0.853,58.027-50.347,58.027-81.92
	c0-5.12,0-21.333-29.867-21.333c-5.12,0-12.8,3.413-22.187,7.68c-15.36,7.68-35.84,17.92-63.147,17.92
	c-2.56,0-4.267-1.707-4.267-4.267c0-2.56,1.707-4.267,4.267-4.267c25.6,0,44.373-9.387,59.733-17.067
	c10.24-5.12,17.92-8.533,25.6-8.533c33.28,0,38.4,18.773,38.4,29.867c0,35.84-58.88,86.187-61.44,88.747
	C313.493,503.74,312.64,503.74,311.787,503.74z M192.32,503.74c-0.853,0-1.707,0-2.56-0.853c-2.56-2.56-61.44-52.907-61.44-88.747
	c0-18.773,13.653-29.867,38.4-29.867c8.533,0,15.36,6.827,23.893,16.213c17.067,17.067,41.813,43.52,104.107,43.52
	c2.56,0,4.267,1.707,4.267,4.267s-1.707,4.267-4.267,4.267c-65.707,0-93.013-29.013-110.08-46.08
	c-6.827-7.68-12.8-13.653-17.92-13.653c-13.653,0-29.867,3.413-29.867,21.333c0,31.573,58.027,81.92,58.027,81.92
	c1.707,1.707,1.707,4.267,0.853,5.973C194.88,502.887,193.173,503.74,192.32,503.74z M252.053,384.274
	c-58.88,0-70.827-23.893-79.36-41.813l-1.707-3.413c-12.8-24.747-29.867-86.187-33.28-100.693
	c-10.24-1.707-17.92-10.24-17.92-21.333v-17.067c0-2.56,1.707-4.267,4.267-4.267c2.56,0,4.267,1.707,4.267,4.267v17.067
	c0,6.827,5.973,12.8,12.8,12.8c1.707,0,3.413,1.707,4.267,3.413c0,0.853,20.48,75.093,34.133,101.547l1.707,3.413
	c7.68,16.213,17.92,36.693,71.68,36.693c53.76,0,63.147-20.48,71.68-36.693l1.707-3.413c13.653-26.453,33.28-100.693,34.133-101.547
	c0.853-1.707,2.56-3.413,4.267-3.413c6.827,0,12.8-5.973,12.8-12.8v-17.067c0-2.56,1.707-4.267,4.267-4.267s4.267,1.707,4.267,4.267
	v17.067c0,10.24-7.68,19.627-17.92,21.333c-4.267,14.507-21.333,75.093-33.28,100.693l-1.707,3.413
	C322.88,360.38,310.933,384.274,252.053,384.274z M286.187,350.14c-0.853,0-2.56,0-3.413-0.853l-24.747-24.747h-15.36
	c-2.56,0-4.267-1.707-4.267-4.267c0-2.56,1.707-4.267,4.267-4.267h17.067l0,0l0,0l0,0l0,0l0,0c0.853,0,0.853,0,1.707,0
	c0.853,0,0.853,0.853,1.707,0.853l0,0l0,0l0,0l0,0l0,0l25.6,25.6c1.707,1.707,1.707,4.267,0,5.973
	C288.747,350.14,287.04,350.14,286.187,350.14z M286.187,298.94c-0.853,0-17.067,0-34.133-7.68c-17.067,7.68-33.28,7.68-34.133,7.68
	c-2.56,0-4.267-1.707-4.267-4.267s1.707-4.267,4.267-4.267c0,0,16.213,0,32.427-7.68c0.853-0.853,2.56-0.853,3.413,0
	c16.213,7.68,32.427,7.68,32.427,7.68c2.56,0,4.267,1.707,4.267,4.267S288.747,298.94,286.187,298.94z M294.72,222.14
	c-2.56,0-4.267-1.707-4.267-4.267v-4.267h-12.8c-2.56,0-4.267-1.707-4.267-4.267c0-2.56,1.707-4.267,4.267-4.267h34.133
	c2.56,0,4.267,1.707,4.267,4.267c0,2.56-1.707,4.267-4.267,4.267h-12.8v4.267C298.987,220.433,297.28,222.14,294.72,222.14z
	 M209.387,222.14c-2.56,0-4.267-1.707-4.267-4.267v-4.267h-12.8c-2.56,0-4.267-1.707-4.267-4.267c0-2.56,1.707-4.267,4.267-4.267
	h34.133c2.56,0,4.267,1.707,4.267,4.267c0,2.56-1.707,4.267-4.267,4.267h-12.8v4.267C213.653,220.433,211.947,222.14,209.387,222.14
	z M252.053,179.474c-128.853,0-183.467-11.093-183.467-38.4c0-29.013,52.907-37.547,54.613-38.4c2.56,0,4.267,0.853,5.12,3.413
	c0,2.56-0.853,4.267-3.413,5.12c-13.653,2.56-47.787,11.947-47.787,29.867c0,19.627,58.88,29.867,174.933,29.867
	s174.933-10.24,174.933-29.867c0-22.187-46.933-29.013-70.827-29.867c1.707,5.973,2.56,10.24,2.56,11.947
	c0.853,2.56-0.853,4.267-3.413,5.12c-2.56,0.853-4.267-0.853-5.12-3.413c-0.853-5.12-2.56-10.24-3.413-16.213
	c0-0.853,0-0.853-0.853-1.707c-11.093-43.52-31.573-98.133-51.2-98.133c-14.507,0-23.04,5.973-29.867,11.093
	c-4.267,3.413-8.533,5.973-12.8,5.973c-4.267,0-8.533-2.56-12.8-5.973c-6.827-5.12-15.36-11.093-29.867-11.093
	c-21.333,0-44.373,66.56-54.613,111.787c13.653,1.707,55.467,7.68,97.28,7.68c49.493,0,67.413-4.267,67.413-4.267
	c2.56-0.853,4.267,0.853,5.12,3.413s-0.853,4.267-3.413,5.12c-0.853,0-17.92,4.267-69.12,4.267s-102.4-8.533-103.253-8.533
	c-0.853,0-2.56-0.853-2.56-1.707c-0.853-0.853-0.853-2.56-0.853-3.413c2.56-12.8,27.307-122.88,64-122.88
	c17.92,0,28.16,7.68,34.987,12.8c3.413,2.56,5.973,4.267,7.68,4.267c1.707,0,4.267-1.707,7.68-4.267
	c6.827-5.12,17.067-12.8,34.987-12.8c28.16,0,49.493,66.56,58.88,102.4c16.213,0.853,81.92,4.267,81.92,38.4
	C435.52,168.38,380.907,179.474,252.053,179.474z"/>
</svg>